<svg
  xmlns="http://www.w3.org/2000/svg"
  width="130"
  height="29"
  viewBox="0 0 130 29"
  fill="none"
>
  <g id="Seta Divisor Hero Sankofa">
    <path
      id="curva"
      d="M65.0696 -2.67029e-05C40.7503 -2.67029e-05 35.8524 28.6 3.73048 28.6H126.27C94.1476 28.6 89.3889 -2.67029e-05 65.0696 -2.67029e-05Z"
      fill="#FBFBFB"
      style="fill: rgb(251, 251, 251); opacity: 1"
    ></path>
    <path
      id="seta"
      fill-rule="evenodd"
      clip-rule="evenodd"
      d="M58.0454 12.0454C58.5726 11.5182 59.4274 11.5182 59.9546 12.0454L65 17.0908L70.0454 12.0454C70.5726 11.5182 71.4274 11.5182 71.9546 12.0454C72.4818 12.5726 72.4818 13.4274 71.9546 13.9546L66.6617 19.2475C65.744 20.1652 64.256 20.1652 63.3383 19.2475L58.0454 13.9546C57.5182 13.4274 57.5182 12.5726 58.0454 12.0454Z"
      fill="#9CC061"
      style="fill: #ea373b"
    ></path>
  </g>
</svg>
